<svg width="166" height="32" viewBox="0 0 166 32" fill="none" xmlns="http://www.w3.org/2000/svg">
<path fill-rule="evenodd" clip-rule="evenodd" d="M10.9199 0.0507181C27.267 0.006671 27.2163 21.8512 10.9199 21.8515H8.00293V27.0956C8.00293 30.7734 9.56242 31.1736 11.7754 31.4462H0C2.27015 31.1736 3.7793 30.7735 3.7793 27.0956V4.4013C3.7793 0.723409 2.27015 0.317048 0 0.0507181H10.9199ZM10.8242 0.456968C8.75714 0.456998 8.00293 0.907233 8.00293 4.22357V21.4462H10.9199C20.9703 21.4457 21.3317 0.457258 11.2305 0.456968H10.8242Z" fill="#FDFDFD"/>
<path d="M26.8118 28.5988L26.8245 3.63985C26.8245 0.748261 25.7782 0.79265 24.1612 0.79265L31.2189 0L31.1999 28.6432C31.1999 30.9704 31.8277 31.3382 33.0832 31.446H24.9792C26.1713 31.3445 26.8054 30.945 26.8118 28.5988Z" fill="#FDFDFD"/>
<path d="M49.9619 26.5252C49.6132 28.5798 46.9435 31.446 43.0564 31.446C38.0785 31.446 34.128 27.1086 34.0836 20.5645C34.0455 14.014 37.1337 9.67667 41.7881 9.67667C46.1953 9.67667 48.7888 12.9804 48.7888 17.9963L37.9771 21.0972C38.4717 24.0078 40.317 30.0192 44.61 30.0192C46.6455 30.0192 49.0742 28.8398 49.9556 26.5252H49.9619ZM37.9137 20.5645L44.9016 18.7192C44.8192 14.5213 44.2358 10.0318 41.7881 10.0318C38.218 10.0318 37.2605 16.4681 37.9137 20.5645Z" fill="#FDFDFD"/>
<path d="M61.8498 28.5544C61.2854 29.9368 59.8333 31.446 57.8738 31.446C55.1154 31.446 52.598 29.5944 52.598 26.836V10.7991H50.9619V10.1206C53.1053 10.1206 55.7242 6.50607 56.5168 4.9715H56.9861V10.1206H61.5708V10.7991H56.9861V27.3686C56.9861 30.2982 60.0108 30.907 61.8498 28.5481V28.5544Z" fill="#FDFDFD"/>
<path d="M76.8955 28.5988L76.8575 16.5822C76.8448 13.9189 76.6736 11.5854 74.2005 11.5854C72.7547 11.5854 70.586 12.7902 69.2607 14.0077V28.6432C69.2607 30.9704 69.8314 31.3382 70.9792 31.446H63.598C64.6824 31.3445 65.2658 30.9451 65.2658 28.5988L65.2784 3.64619C65.2784 0.754609 64.3273 0.798997 62.8498 0.798997L69.2797 0.00634766L69.2607 13.4433C71.5626 11.319 73.7693 10.1713 75.6907 10.1713C78.8867 10.1713 80.8397 12.5619 80.8588 16.132L80.8968 28.6432C80.8968 30.9704 81.4675 31.3382 82.6153 31.446H75.2341C76.3185 31.3445 76.9019 30.9451 76.9019 28.5988H76.8955Z" fill="#FDFDFD"/>
<path d="M102.227 20.5582C102.227 27.1086 98.4917 31.446 92.9242 31.446C87.3566 31.446 83.6153 27.1086 83.6153 20.5582C83.6153 14.0077 87.3566 9.67033 92.9242 9.67033C98.4917 9.67033 102.227 14.0077 102.227 20.5582ZM97.7118 20.5582C97.7118 14.4136 96.6655 10.0698 92.9242 10.0698C89.1829 10.0698 88.3141 14.4136 88.3141 20.5582C88.3141 26.7028 89.1829 30.9324 92.9242 30.9324C96.6655 30.9324 97.7118 26.7028 97.7118 20.5582Z" fill="#FDFDFD"/>
<path d="M115.922 10.1713C114.229 10.1713 112.288 11.2747 110.259 13.3038L110.278 10.6279L110.139 10.6469V10.6279L109.479 10.7166L103.227 11.4205C104.844 11.4205 105.896 11.3761 105.89 14.2677L105.877 28.5988C105.877 30.945 105.237 31.3445 104.045 31.446H112.149C110.893 31.3382 110.265 30.9704 110.265 28.6432V13.8809C111.464 12.7078 113.322 11.5917 114.584 11.5917C116.372 11.5917 116.829 13.0882 116.943 15.054L119.65 12.2829C118.851 10.9513 117.57 10.1776 115.928 10.1776L115.922 10.1713Z" fill="#FDFDFD"/>
<path d="M137.524 28.5608C137.188 30.0446 135.267 31.2685 134.1 31.2685C132.261 31.2685 131.044 30.0953 131.044 28.4213C128.995 30.6343 127.404 31.446 125.019 31.446C122.635 31.446 120.695 29.5056 120.695 26.614C120.695 19.9304 128.742 20.425 131.044 15.6374V14.5974C131.044 12.0673 129.864 10.0445 127.429 10.0445C124.335 10.0445 122.756 13.7985 124.753 15.574L120.65 18.4592C121.025 15.8403 121.316 9.79081 128.292 9.79081C133.884 9.79081 135.261 13.5638 135.261 17.0388V28.1486C135.261 29.7085 136.782 30.0256 137.518 28.5544L137.524 28.5608ZM131.126 27.8632L131.044 16.4047C128.659 19.9748 124.335 20.5708 124.335 25.9862C124.335 28.5164 125.673 30.1841 127.321 30.1841C128.659 30.1841 129.623 29.6641 131.132 27.8632H131.126Z" fill="#FDFDFD"/>
<path d="M148.067 28.5988L148.08 14.236C148.08 11.3444 147.078 11.3888 145.524 11.3888L152.29 10.5961L152.278 28.6432C152.278 30.9704 152.88 31.3382 154.085 31.446H146.311C147.452 31.3445 148.061 30.945 148.067 28.5988ZM150.147 3.12621C152.557 3.12621 152.55 6.7407 150.147 6.7407C147.744 6.7407 147.737 3.12621 150.147 3.12621Z" fill="#FDFDFD"/>
<path d="M165.979 28.5544C165.415 29.9368 163.963 31.446 162.003 31.446C159.245 31.446 156.721 29.5944 156.721 26.8359V10.7991H155.085V10.1206C157.228 10.1206 159.847 6.50607 160.646 4.9715H161.115V10.1206H165.7V10.7991H161.115V27.3686C161.115 30.2982 164.14 30.907 165.979 28.5481V28.5544Z" fill="#FDFDFD"/>
</svg>
